grf
version=1
nRows=19
nColumns=37
inDegrees=no
endheader
time	ground_force_1_vx	ground_force_1_vy	ground_force_1_vz	ground_force_1_px	ground_force_1_py	ground_force_1_pz	ground_moment_1_mx	ground_moment_1_my	ground_moment_1_mz	ground_force_2_vx	ground_force_2_vy	ground_force_2_vz	ground_force_2_px	ground_force_2_py	ground_force_2_pz	ground_moment_2_mx	ground_moment_2_my	ground_moment_2_mz	ground_force_3_vx	ground_force_3_vy	ground_force_3_vz	ground_force_3_px	ground_force_3_py	ground_force_3_pz	ground_moment_3_mx	ground_moment_3_my	ground_moment_3_mz	ground_force_4_vx	ground_force_4_vy	ground_force_4_vz	ground_force_4_px	ground_force_4_py	ground_force_4_pz	ground_moment_4_mx	ground_moment_4_my	ground_moment_4_mz
      5.19000000	      0.00000000	     -0.00000000	      0.00000000	      0.00000000	      0.00000000	      0.00000000	      0.00000000	      0.00000000	      0.00000000	     -2.29863501	      2.52817583	   -108.94954681	   -399.04669720	  -1127.84128363	      0.00000000	      0.00000000	     -0.00000000	   -348.70903823	     27.85518077	    -65.11384063	   -469.17770386	   -439.99703407	   -704.27710978	      0.00000000	      0.00000000	     -0.00000000	  -2371.96555655	      0.00000000	     -0.00000000	      0.00000000	      0.00000000	      0.00000000	      0.00000000	      0.00000000	      0.00000000	      0.00000000
      5.20000000	      0.00000000	     -0.00000000	      0.00000000	      0.00000000	      0.00000000	      0.00000000	      0.00000000	      0.00000000	      0.00000000	    -46.30370331	     13.10156822	   -168.19497681	   -398.15834306	  -1130.37472804	      0.00000000	      0.00000000	     -0.00000000	   -176.39418030	     24.08793018	    -71.15583249	   -488.79986572	   -439.03562902	   -704.13216371	      0.00000000	      0.00000000	     -0.00000000	  -2507.91296361	      0.00000000	     -0.00000000	      0.00000000	      0.00000000	      0.00000000	      0.00000000	      0.00000000	      0.00000000	      0.00000000
      5.21000000	      0.00000000	     -0.00000000	      0.00000000	      0.00000000	      0.00000000	      0.00000000	      0.00000000	      0.00000000	      0.00000000	    -72.72782135	     16.55702400	   -206.87930298	   -400.55958700	  -1130.55290476	      0.00000000	      0.00000000	     -0.00000000	   -865.10305775	     20.16228023	    -74.65298638	   -497.97387695	   -437.71656790	   -703.84448772	      0.00000000	      0.00000000	     -0.00000000	  -2422.70180387	      0.00000000	     -0.00000000	      0.00000000	      0.00000000	      0.00000000	      0.00000000	      0.00000000	      0.00000000	      0.00000000
      5.22000000	      0.00000000	     -0.00000000	      0.00000000	      0.00000000	      0.00000000	      0.00000000	      0.00000000	      0.00000000	      0.00000000	    -55.50132751	      6.92773485	   -230.42552185	   -407.65825237	  -1127.86135012	      0.00000000	      0.00000000	     -0.00000000	    -66.24744552	     15.03382576	    -77.65745676	   -501.11743164	   -436.55543322	   -703.29648315	      0.00000000	      0.00000000	     -0.00000000	  -2261.15659399	      0.00000000	     -0.00000000	      0.00000000	      0.00000000	      0.00000000	      0.00000000	      0.00000000	      0.00000000	      0.00000000
      5.23000000	      0.00000000	     -0.00000000	      0.00000000	      0.00000000	      0.00000000	      0.00000000	      0.00000000	      0.00000000	      0.00000000	    -20.52863121	     -0.86269450	   -385.32189941	   -466.34094426	  -1115.59909199	      0.00000000	      0.00000000	      0.00000000	     77.95763521	      8.68278475	    -79.62110977	   -501.38171387	   -434.70916936	   -702.80319732	      0.00000000	      0.00000000	     -0.00000000	  -2063.20586890	      0.00000000	     -0.00000000	      0.00000000	      0.00000000	      0.00000000	      0.00000000	      0.00000000	      0.00000000	      0.00000000
      5.24000000	      0.00000000	     -0.00000000	      0.00000000	      0.00000000	      0.00000000	      0.00000000	      0.00000000	      0.00000000	      0.00000000	     85.42514038	     20.88195038	   -761.32421875	   -513.07005167	  -1109.90466344	      0.00000000	      0.00000000	     -0.00000000	   -297.31901760	      4.21338746	    -76.67943610	   -484.14111328	   -434.06391779	   -701.88066050	      0.00000000	     -0.00000000	     -0.00000000	  -1785.37463732	      0.00000000	     -0.00000000	      0.00000000	      0.00000000	      0.00000000	      0.00000000	      0.00000000	      0.00000000	      0.00000000
      5.25000000	      0.00000000	     -0.00000000	      0.00000000	      0.00000000	      0.00000000	      0.00000000	      0.00000000	      0.00000000	      0.00000000	    160.17645264	     40.64387131	   -842.02648926	   -527.53791664	  -1109.21037910	      0.00000000	      0.00000000	     -0.00000000	  -1185.55646955	     -2.70573517	    -67.74292731	   -426.75106812	   -433.25866808	   -702.17028938	      0.00000000	     -0.00000000	     -0.00000000	  -1541.42761264	      0.00000000	     -0.00000000	      0.00000000	      0.00000000	      0.00000000	      0.00000000	      0.00000000	      0.00000000	      0.00000000
      5.26000000	      0.00000000	     -0.00000000	      0.00000000	      0.00000000	      0.00000000	      0.00000000	      0.00000000	      0.00000000	      0.00000000	     90.22801208	     51.58329010	   -859.48779297	   -526.08438097	  -1111.19031139	      0.00000000	      0.00000000	     -0.00000000	  -2414.88949438	    -12.49594025	    -54.96452222	   -356.92535400	   -431.20355419	   -701.14773972	      0.00000000	     -0.00000000	     -0.00000000	  -1275.75160746	      0.00000000	     -0.00000000	      0.00000000	      0.00000000	      0.00000000	      0.00000000	      0.00000000	      0.00000000	      0.00000000
      5.27000000	      0.00000000	     -0.00000000	      0.00000000	      0.00000000	      0.00000000	      0.00000000	      0.00000000	      0.00000000	      0.00000000	     39.64611053	     74.26556396	   -794.79455566	   -525.73907461	  -1112.83650791	      0.00000000	      0.00000000	     -0.00000000	  -2151.21160421	    -16.07929388	    -39.94577267	   -285.88058472	   -430.52292862	   -702.47669166	      0.00000000	      0.00000000	     -0.00000000	  -1119.61576229	      0.00000000	     -0.00000000	      0.00000000	      0.00000000	      0.00000000	      0.00000000	      0.00000000	      0.00000000	      0.00000000
      5.28000000	      0.00000000	     -0.00000000	      0.00000000	      0.00000000	      0.00000000	      0.00000000	      0.00000000	      0.00000000	      0.00000000	     22.59444046	     99.72184753	   -779.69494629	   -525.80171125	  -1115.49802067	      0.00000000	      0.00000000	     -0.00000000	  -2480.20033691	    -16.21112675	    -26.61061336	   -225.29916382	   -429.16452410	   -702.67494793	      0.00000000	      0.00000000	     -0.00000000	   -788.44410871	      0.00000000	     -0.00000000	      0.00000000	      0.00000000	      0.00000000	      0.00000000	      0.00000000	      0.00000000	      0.00000000
      5.29000000	      0.00000000	     -0.00000000	      0.00000000	      0.00000000	      0.00000000	      0.00000000	      0.00000000	      0.00000000	      0.00000000	     26.16999626	    118.38488770	   -779.23895264	   -527.93104657	  -1117.19533391	      0.00000000	      0.00000000	     -0.00000000	  -2379.96406868	    -16.06823105	    -15.75583699	   -175.06164551	   -427.32303976	   -704.72682128	      0.00000000	      0.00000000	     -0.00000000	   -511.83897374	      0.00000000	     -0.00000000	      0.00000000	      0.00000000	      0.00000000	      0.00000000	      0.00000000	      0.00000000	      0.00000000
      5.30000000	      0.00000000	     -0.00000000	      0.00000000	      0.00000000	      0.00000000	      0.00000000	      0.00000000	      0.00000000	      0.00000000	     33.52935791	    127.51416779	   -786.26257324	   -530.88303282	  -1117.65714960	      0.00000000	      0.00000000	     -0.00000000	  -1990.94689292	    -13.83887155	     -6.32324384	   -135.53990173	   -426.32172264	   -704.38748525	      0.00000000	      0.00000000	     -0.00000000	   -229.61467431	      0.00000000	     -0.00000000	      0.00000000	      0.00000000	      0.00000000	      0.00000000	      0.00000000	      0.00000000	      0.00000000
      5.31000000	      0.00000000	     -0.00000000	      0.00000000	      0.00000000	      0.00000000	      0.00000000	      0.00000000	      0.00000000	      0.00000000	     35.31556320	    128.41334534	   -790.11016846	   -532.48992809	  -1118.46737612	      0.00000000	      0.00000000	     -0.00000000	  -1157.75984510	    -11.75135596	      1.87262054	   -110.07559967	   -421.20816116	   -702.58156464	      0.00000000	      0.00000000	     -0.00000000	   -121.21368797	      0.00000000	     -0.00000000	      0.00000000	      0.00000000	      0.00000000	      0.00000000	      0.00000000	      0.00000000	      0.00000000
      5.32000000	      0.00000000	     -0.00000000	      0.00000000	      0.00000000	      0.00000000	      0.00000000	      0.00000000	      0.00000000	      0.00000000	     36.81414413	    121.06929016	   -782.87072754	   -534.96683396	  -1117.60628256	      0.00000000	      0.00000000	     -0.00000000	   -664.36646586	     -9.46567849	      7.73666465	    -87.58021545	   -424.73133380	   -707.44321959	      0.00000000	      0.00000000	      0.00000000	     41.09604399	      0.00000000	     -0.00000000	      0.00000000	      0.00000000	      0.00000000	      0.00000000	      0.00000000	      0.00000000	      0.00000000
      5.33000000	      0.00000000	     -0.00000000	      0.00000000	      0.00000000	      0.00000000	      0.00000000	      0.00000000	      0.00000000	      0.00000000	     41.05369949	    111.21309662	   -766.04724121	   -538.14082890	  -1116.19441335	      0.00000000	      0.00000000	     -0.00000000	   -381.15877399	     -5.64904405	     10.77524616	    -69.13201904	   -422.75564093	   -707.56673795	      0.00000000	      0.00000000	      0.00000000	    229.37043076	      0.00000000	     -0.00000000	      0.00000000	      0.00000000	      0.00000000	      0.00000000	      0.00000000	      0.00000000	      0.00000000
      5.34000000	      0.00000000	     -0.00000000	      0.00000000	      0.00000000	      0.00000000	      0.00000000	      0.00000000	      0.00000000	      0.00000000	     45.88056183	    101.49945068	   -740.02465820	   -539.92847050	  -1115.58231669	      0.00000000	      0.00000000	      0.00000000	     10.37540867	     -0.77834955	     13.24394996	    -53.54672623	   -428.29617350	   -708.69313166	      0.00000000	      0.00000000	      0.00000000	    314.26460241	      0.00000000	     -0.00000000	      0.00000000	      0.00000000	      0.00000000	      0.00000000	      0.00000000	      0.00000000	      0.00000000
      5.35000000	      0.00000000	     -0.00000000	      0.00000000	      0.00000000	      0.00000000	      0.00000000	      0.00000000	      0.00000000	      0.00000000	     46.87240982	     93.87888336	   -705.93316650	   -541.30652777	  -1115.30731811	      0.00000000	      0.00000000	      0.00000000	    188.09479026	      3.20855484	     14.67363616	    -40.20080948	   -438.58976868	   -724.47880189	      0.00000000	      0.00000000	      0.00000000	    274.02765561	      0.00000000	     -0.00000000	      0.00000000	      0.00000000	      0.00000000	      0.00000000	      0.00000000	      0.00000000	      0.00000000
      5.36000000	      0.00000000	     -0.00000000	      0.00000000	      0.00000000	      0.00000000	      0.00000000	      0.00000000	      0.00000000	      0.00000000	     47.02630997	     87.90739441	   -672.50366211	   -542.06747829	  -1115.09261828	      0.00000000	      0.00000000	      0.00000000	    546.99213109	      6.12814372	     15.59501213	    -30.52270126	   -442.59845234	   -713.64822359	      0.00000000	      0.00000000	      0.00000000	    324.55538685	      0.00000000	     -0.00000000	      0.00000000	      0.00000000	      0.00000000	      0.00000000	      0.00000000	      0.00000000	      0.00000000
      5.37000000	      0.00000000	     -0.00000000	      0.00000000	      0.00000000	      0.00000000	      0.00000000	      0.00000000	      0.00000000	      0.00000000	     45.85420227	     83.76883698	   -641.51947021	   -544.02774061	  -1114.81051038	      0.00000000	      0.00000000	      0.00000000	    645.61276119	      7.09686411	     15.10228095	    -25.24072456	   -437.30722819	   -689.63819944	      0.00000000	     -0.00000000	     -0.00000000	    322.52778602	      0.00000000	     -0.00000000	      0.00000000	      0.00000000	      0.00000000	      0.00000000	      0.00000000	      0.00000000	      0.00000000
